<svg data-v-423bf9ae="" xmlns="http://www.w3.org/2000/svg" viewBox="0 0 36.275070270857164 60" class="font"><!----><!----><defs data-v-423bf9ae=""><linearGradient data-v-423bf9ae="" gradientTransform="rotate(25)" id="2dfe7828-ceb3-48e8-871d-6053801266c4" x1="0%" y1="0%" x2="100%" y2="0%"><stop data-v-423bf9ae="" offset="0%" style="stop-color: rgb(141, 44, 227); stop-opacity: 1;"></stop><stop data-v-423bf9ae="" offset="100%" style="stop-color: rgb(247, 198, 246); stop-opacity: 1;"></stop></linearGradient></defs><g data-v-423bf9ae="" id="f39eddbc-4104-49e9-9493-20c3ef67a48e" fill="url(#2dfe7828-ceb3-48e8-871d-6053801266c4)" transform="matrix(5.730658879632186,0,0,5.730658879632186,-2.0630369612311874,-18.796560245982363)"><path d="M2.30 10.09L2.30 10.09Q2.06 10.28 2.04 10.77Q2.02 11.25 2.21 11.75Q2.39 12.25 2.78 12.63Q3.16 13.02 3.73 13.02L3.73 13.02Q4.10 13.02 4.37 12.84Q4.63 12.66 4.81 12.39Q4.98 12.13 5.06 11.80Q5.14 11.47 5.14 11.16L5.14 11.16Q5.14 10.71 4.97 10.40Q4.80 10.10 4.52 9.88Q4.24 9.65 3.88 9.50Q3.51 9.34 3.14 9.17L3.14 9.17Q2.80 9.04 2.32 8.83Q1.85 8.61 1.41 8.26Q0.97 7.92 0.66 7.40Q0.36 6.89 0.36 6.14L0.36 6.14Q0.36 5.65 0.62 5.14Q0.88 4.63 1.35 4.22Q1.83 3.80 2.51 3.54Q3.19 3.28 4.03 3.28L4.03 3.28Q4.87 3.28 5.39 3.43Q5.91 3.58 6.19 3.82Q6.48 4.06 6.58 4.34Q6.69 4.62 6.69 4.87L6.69 4.87Q6.69 5.11 6.54 5.37Q6.38 5.62 6.18 5.83Q5.97 6.04 5.76 6.20Q5.54 6.36 5.40 6.41L5.40 6.41Q5.47 6.23 5.54 5.92Q5.61 5.61 5.50 5.29Q5.40 4.98 5.02 4.74Q4.65 4.51 3.81 4.51L3.81 4.51Q3.34 4.51 2.88 4.66Q2.43 4.81 2.08 5.05Q1.74 5.29 1.53 5.59Q1.33 5.89 1.33 6.21L1.33 6.21Q1.33 6.51 1.54 6.76Q1.75 7.01 2.11 7.24Q2.47 7.46 2.95 7.68Q3.42 7.90 3.94 8.12L3.94 8.12Q4.44 8.34 4.94 8.59Q5.43 8.85 5.82 9.17Q6.21 9.50 6.44 9.91Q6.67 10.32 6.67 10.86L6.67 10.86Q6.67 11.43 6.46 11.96Q6.25 12.48 5.86 12.88Q5.47 13.28 4.91 13.51Q4.35 13.75 3.64 13.75L3.64 13.75Q3.01 13.75 2.45 13.55Q1.89 13.34 1.47 13.02Q1.05 12.69 0.81 12.29Q0.56 11.89 0.56 11.51L0.56 11.51Q0.56 11.10 0.75 10.81Q0.93 10.53 1.20 10.36Q1.48 10.19 1.77 10.12Q2.06 10.05 2.30 10.09Z"></path></g><!----><!----></svg>